# xmcd
#
# Track frame offsets:
# 150
# 15950
# 32410
# 51127
# 67495
# 84195
# 100705
# 116970
# 133307
# 150455
# 175102
#
# Disc length: 3524 seconds
#
#
# Revision: 0
# Processed by: cddbd v1.4PL0 Copyright (c) Steve Scherf et al.
# Submitted via: FreeRIP 2.52 
#
DISCID=870dc20b
DTITLE=Javier - Licha Y Veras
DYEAR=1999
DGENRE=Rock
TTITLE0=Tiembla Mi Piel
TTITLE1=Hoy Daria
TTITLE2=Te Quiero De Verdad
TTITLE3=El Color Del Amor
TTITLE4=Y Donde Estas?
TTITLE5=Piensatelo Bien
TTITLE6=Nunca Volveras
TTITLE7=Lucha Y Veras
TTITLE8=Vuelve A Mi
TTITLE9=El Silencio De Mi Ciudad
TTITLE10=Tiembla Mi Piel(Video)
EXTD=Edicion Limitada\nContiene Video Entrevista\n"TIEMBLA MI PIEL"\ne interactivate con\nJavier
EXTT0=
EXTT1=
EXTT2=
EXTT3=
EXTT4=
EXTT5=
EXTT6=
EXTT7=
EXTT8=
EXTT9=
EXTT10=
PLAYORDER=
